<svg xmlns="http://www.w3.org/2000/svg" width="182" height="32" viewBox="0 0 182 32">
    <g fill="none" fill-rule="nonzero">
        <g fill="#FFF">
            <path d="M0 2.88v-.06c0-.06 0 0 0 0l1 .06a.24.24 0 0 0 .25-.26 5.92 5.92 0 0 0-.03-1.18 3.42 3.42 0 0 1-.13-.34.09.09 0 0 1 .1-.1c.11 0 .81.12.81.29 0 .17-.1.22-.11.27a3.09 3.09 0 0 0 0 .62c0 .62 0 .68.25.68a.38.38 0 0 0 .26-.06c.06-.06.28-.36.34-.36a1 1 0 0 1 .49.56c0 .14-.17.14-.48.14h-.61c-.11 0-.3 0-.3.25v1.5A.15.15 0 0 0 2 5c.07 0 .88-.35.91-.35a6.08 6.08 0 0 1-.87.66.41.41 0 0 0-.21.36v2.64c0 .82-.63.86-.66.86-.03 0-.17-.03-.32-.33a1.63 1.63 0 0 0-.41-.38c-.06 0-.06 0-.06-.07s0 0 .08 0H.9c.19 0 .3 0 .34-.14a7.32 7.32 0 0 0 0-1V6a.11.11 0 0 0-.11-.1 2.17 2.17 0 0 0-.41.23s-.16.21-.2.21c-.04 0-.35-.66-.35-.74a.09.09 0 0 1 .1-.09c.28 0 .556-.062.81-.18a.32.32 0 0 0 .2-.33V3.37A.23.23 0 0 0 1 3.11H.28l-.07-.06L0 2.88zm3.2 3.76c0 .09-.06.19-.16.19s-.47-.77-.47-.83c0-.06 0-.06.09-.06a5.67 5.67 0 0 0 1.27-.38c.34-.13.38-.14.38-.47 0-.33 0-2.8-.12-3.17 0-.09-.1-.56-.13-.63A.42.42 0 0 1 4 1.17a.11.11 0 0 1 .14-.09l.62.12c.07 0 .22.07.22.17a.64.64 0 0 1-.11.16v3.15c0 1.85-.08 3.19-1.63 4.05a3.82 3.82 0 0 1-.94.4l.17-.14a3.61 3.61 0 0 0 1.85-3.1s0-.1-.06-.11c-.06-.01-.91.54-1.02.86H3.2zM4 4c0 .29-.18.38-.29.38-.11 0-.27-.17-.4-.51a2 2 0 0 0-.38-.6h.05c.216.02.427.08.62.18A.67.67 0 0 1 4 4zm2.51-2.54s0 .06-.11.12a.28.28 0 0 0-.16.24c0 .22-.07 3.11-.07 3.51 0 .4 0 2.67.06 2.86.06.19.31.19.62.19.69 0 .74 0 .87-.52.06-.25.1-.42.17-.75v-.07.06a3.4 3.4 0 0 0 .18 1.12c.19.2.22.22.22.32C8.36 9 7.34 9 7 9c-1.29 0-1.39-.27-1.39-1.2V3.06a15.06 15.06 0 0 0-.05-1.55v-.32c0-.05 0-.09.09-.09s.27.06.34.07c.3.09.52.13.52.29zM8.14 6.4a.39.39 0 0 1-.31.42c-.12 0-.16-.05-.52-.51-.11-.15-.82-.89-.82-.9 0-.01 0 0 0 0 .225.023.447.074.66.15.42.11.99.34.99.84zm.12-3.05c0 .06 0 .07-.38.15a6 6 0 0 0-1.13.55.48.48 0 0 1-.18.08s.38-.46.44-.55a2.65 2.65 0 0 0 .48-.75c0-.05.06-.1.1-.1a.92.92 0 0 1 .34.23c.22.18.33.26.33.39zM14.42 3.44a.25.25 0 0 0 .25-.1c.18-.2.19-.2.25-.2s.12 0 .26.16.24.15.28.15l.82-.08a.18.18 0 0 0 .18-.19V1.69c0-.09-.06-.55-.06-.66 0-.11 0 0 .07 0s.35.05.63.09c.1 0 .2 0 .2.12s-.16.21-.18.26A13.39 13.39 0 0 0 17 3.09c0 .2.09.2.23.18h.33c.21 0 .33 0 .39-.08s.3-.5.4-.5c.1 0 .89.43.89.54 0 .11-.18.13-.41.16l-1.56.15c-.14 0-.27 0-.27.22a9.46 9.46 0 0 0 .34 2.74 7.42 7.42 0 0 0 1-1.69c0-.08.17-.55.19-.55.02 0 .68.43.68.61s0 .09-.2.16a14.92 14.92 0 0 0-1.07 1.47 2.51 2.51 0 0 0-.35.57c0 .17.62 1 1 1 .15 0 .24-.13.45-.46a1.83 1.83 0 0 1 .23-.29s-.13.65-.13.78a.8.8 0 0 0 .14.4c.15.21.18.25.18.39a.3.3 0 0 1-.28.32 2.87 2.87 0 0 1-1.86-1.48c-.13-.19-.13-.21-.15-.21l-.53.5a4.22 4.22 0 0 1-1.28.86.09.09 0 0 1-.07-.06c0-.06 0-.07.2-.22A7 7 0 0 0 16.93 7c0-.1-.18-.6-.21-.72a15 15 0 0 1-.24-2.43c0-.11 0-.24-.15-.24a3.32 3.32 0 0 0-1 .19c-.08.07-.08.16-.08.93v1.25c0 .25-.38.46-.47.46-.09 0-.13-.09-.16-.24s-.16-.13-.22-.13h-.51a.21.21 0 0 0-.22.22c0 .5 0 .56.05.62A.3.3 0 0 0 14 7h.32c.41 0 .46 0 .59-.14.25-.31.28-.34.37-.34a1.8 1.8 0 0 1 .65.6c0 .13-.19.13-.49.13H14c-.09 0-.26 0-.26.23v1.36c0 .21-.38.41-.44.41s-.3-.2-.3-.34.05-1.15.05-1.37c0-.22 0-.32-.25-.32H11.27s-.05 0-.08-.07L11.06 7h-.05 1.81c.27 0 .27-.11.27-.7a.21.21 0 0 0-.23-.2h-.5c-.12 0-.18 0-.2.1-.02.1-.07.34-.38.34s-.23-.14-.23-.2.05-1.29.05-1.53v-1-.48-.1s.44.2.54.22a.75.75 0 0 0 .33.06l1.95-.07zm-2.06-.86A.37.37 0 0 1 12 3c-.25 0-.28-.2-.31-.53a2.78 2.78 0 0 0-.28-.91 1.16 1.16 0 0 1-.14-.24c.556.204.968.68 1.09 1.26zm.49 2c.29 0 .29-.15.29-.28 0-.51 0-.56-.1-.62a.31.31 0 0 0-.19 0h-.41a.28.28 0 0 0-.26.12v.55c0 .04 0 .27.27.27l.4-.04zm0 1.21c.29 0 .29-.11.29-.42 0-.48 0-.55-.29-.55h-.4c-.28 0-.28.14-.28.3 0 .61 0 .67.29.67h.39zm.8-3.26c0 .31-.18.37-.26.37-.27 0-.33-.45-.38-.88a3.74 3.74 0 0 0-.23-.84 1.3 1.3 0 0 1 0-.14s0-.06.07 0c.47.375.76.93.8 1.53v-.04zm.75 3.26c.27 0 .27-.15.27-.33 0-.47 0-.51-.07-.58a.3.3 0 0 0-.22-.06H14a.32.32 0 0 0-.22.06c-.05.07-.05.11-.05.58 0 .18 0 .33.26.33h.41zm0-1.21c.28 0 .28-.06.28-.63 0-.17 0-.31-.27-.31H14c-.28 0-.28.07-.28.66 0 .12 0 .28.26.28h.42zm-.09-2.25a3.29 3.29 0 0 0 .36-1.02c0-.1 0-.21.05-.21s.68.23.68.4 0 .08-.17.22S14.27 3 14 3v-.06c0-.01.25-.48.29-.57l.02-.04zm3.78-1c.28 0 .82.18.82.57 0 .16-.08.3-.23.3-.15 0-.14 0-.43-.38-.06-.07-.4-.37-.38-.43.02-.06-.01.01.2.01l.02-.07zM22.62 5.79c0-.27.26-.57.88-1.29a4.4 4.4 0 0 0 .78-1.36c0-.06-.06-.07-.1-.07-.04 0-.47.07-.55.07a1 1 0 0 1-.82-.8s0-.07.06-.07c.122.05.239.11.35.18.187.094.391.149.6.16.75 0 .75-.24.75-.43a.8.8 0 0 0-.07-.32s-.22-.21-.22-.26c0-.05.24-.15.4-.15.16 0 .45.08.47.28.02.2.05.14.41.17.07 0 .42 0 .42.24s-.67.56-1.1.72c-.13.06-.14.07-.34.54a7 7 0 0 1-.5 1c0 .08-.06.11-.06.15.1-.023.197-.056.29-.1a1 1 0 0 1 .36-.07.82.82 0 0 1 .77.56c.07.15.08.17.1.17a4.76 4.76 0 0 0 .37-.49c.3-.42.9-1.26 1.7-1.26a.87.87 0 0 1 .86.82c0 .43-.73.73-1.29 1-.23.1-1.27.51-1.43.61-.16.1-.16.19-.16.39v.55c0 .09 0 .67-.34.67S25 7.09 25 6.93v-.54c0-.01 0-.11-.06-.11s-.89.57-.89 1.09c0 .52.95.63 1.18.63.196.017.394.017.59 0 .13 0 .71-.17.83-.17s.45.09.45.31c0 .57-1.42.61-1.64.61-1.16 0-1.78-.48-1.78-1.2s.35-.88 1.21-1.58A.36.36 0 0 0 25 5.6c0-.41-.07-.93-.44-.93a1.59 1.59 0 0 0-1.13 1c-.1.22-.2.44-.49.44s-.32-.11-.32-.32zM25 2.33s.46-.12.46-.22S25.19 2 25.1 2c-.09 0-.16.26-.16.29 0 .03 0 .04.06.04zm.83 3s1.83-.72 1.83-1.33a.28.28 0 0 0-.32-.28c-.76.01-1.55 1.43-1.55 1.58l.04.03zM36.38 3.32c.2-.18.23-.19.29-.19.06 0 .74.4.74.64a3.11 3.11 0 0 1-.22.4c0 .05-.26 1-.31 1.24a6.56 6.56 0 0 1-1 2.39c-.1.13-.39.5-.65.5S35 8.21 35 8.08a.84.84 0 0 0-.26-.76c-.23-.24-.25-.27-.25-.33a4.2 4.2 0 0 1 .5.17c.11.037.224.057.34.06.32 0 .46-.26.66-.74a15.44 15.44 0 0 0 .6-2.48c0-.19-.1-.19-.18-.19a6.74 6.74 0 0 0-1.53.28c-.07 0-.13.23-.23.5a7.37 7.37 0 0 1-2 3.17 3.53 3.53 0 0 1-1.29.73.06.06 0 0 1-.06 0l.18-.18a7.57 7.57 0 0 0 2.68-4c0-.09 0-.12-.13-.12-.27 0-1.57.38-1.63.38-.06 0-.79-.36-.79-.75 0 0 0-.07.05-.07h.22c.176.02.354.02.53 0a9.79 9.79 0 0 0 1.82-.19c.25-.11.28-1 .28-1.26a2.78 2.78 0 0 0-.11-.47 1.72 1.72 0 0 1-.07-.21c0-.06.1-.06.13-.06.29 0 1 .31 1 .59 0 .07 0 .15-.16.34a2.21 2.21 0 0 0-.33.94c0 .14.07.14.23.14a3.12 3.12 0 0 0 1.18-.25zM41.68 5.58A3.2 3.2 0 0 1 40 7.32h-.05s.29-.4.37-.49a4.83 4.83 0 0 0 1.11-2.68 2 2 0 0 0-.16-.79.68.68 0 0 1 0-.17h.05c.05 0 1 .31 1 .78-.01-.06-.48 1.26-.64 1.61zm1.49.85V6.1 4.98a5.38 5.38 0 0 0-.18-1.73 3.19 3.19 0 0 1 .01-.33h.05c.05 0 1 .16 1 .64 0 .11-.13.59-.15.69-.02.1-.07 1.35-.07 1.66 0 .11 0 .3.17.3a5.45 5.45 0 0 0 2-1.5c.16-.15.93-1 1-1a7.68 7.68 0 0 1-2.14 2.62 5 5 0 0 0-.63.59c-.16.17-.24.24-.3.25-.28.06-.76-.48-.76-.74zM54 2.24c.22.08.32.15.32.26 0 .11-.35.27-.75.34-.18 0-1 .3-1 .31a.14.14 0 0 0-.08.1c0 .06 0 .07.21.14a.41.41 0 0 1 .32.48c0 .32 0 .46.19.46a9 9 0 0 0 .95-.11 4.69 4.69 0 0 1 .45-.22c.316.051.624.139.92.26.2.11.44.29.44.45a.23.23 0 0 1-.26.24 1.69 1.69 0 0 1-.54-.11 5.9 5.9 0 0 0-1-.09 5.17 5.17 0 0 0-1.07.08c-.09.05-.09.09-.16.45A4.23 4.23 0 0 1 51.3 8.1a3.81 3.81 0 0 1-1.09.59h-.05s0-.06.25-.24A5 5 0 0 0 52 6.54a4.47 4.47 0 0 0 .39-1.46.18.18 0 0 0-.19-.16c-.18 0-1.9.31-2 .34-.1.03-.47.18-.55.18a2.13 2.13 0 0 1-.78-.44.83.83 0 0 1-.14-.39.84.84 0 0 1 .24.07 1.3 1.3 0 0 0 .52.1c.37 0 .73 0 2.51-.27.24 0 .33 0 .33-.28s-.11-.81-.45-.81l-.77.12a8.33 8.33 0 0 1-1 .11S50 3.6 50 3.54s0-.06.42-.16A7.23 7.23 0 0 0 53 2.27c0-.05.17-.33.23-.33l.77.3zM63.79 4.85c0 .15-.12.19-.29.25a2 2 0 0 0-.65.4A4.16 4.16 0 0 1 62 6c0-.1.8-1 .8-1.18 0-.07-.07-.08-.1-.08S61.52 5 61.39 5c-.33.08-.36.09-.36.23.21.833.473 1.652.79 2.45.134.262.218.547.25.84 0 .2-.09.39-.19.39a1 1 0 0 1-.55-.51c0-.15-.54-2.29-.67-2.71-.13-.42-.13-.41-.26-.41a6.08 6.08 0 0 0-1 .29c-.38.16-.41.18-.47.18s-.14 0-.54-.3a.38.38 0 0 1-.18-.33c0-.06 0-.23.08-.23l.2.06c.166.045.338.062.51.05a7.31 7.31 0 0 0 1.28-.16.17.17 0 0 0 .13-.15 1.78 1.78 0 0 0-.45-1l-.21-.14c0-.14.38-.14.46-.14.37 0 .68.07.68.36 0 .45 0 1 .21 1a8.14 8.14 0 0 0 1.35-.29 5 5 0 0 1 .54-.24c.2-.11.8.37.8.61zM72.6 4.69h.21c.56 0 .64.34.64.41 0 .25-.38.28-.76.28h-1.31c-1.27 0-3.37.12-3.59.17-.22.05-.6.16-.71.16-.39 0-.82-.57-.82-.88 0 0 0-.11.08-.11s.26.1.31.11a4.55 4.55 0 0 0 1.12.09c.3-.03 3.5-.15 4.83-.23zM77.22 6.49c.16 0 .24-.15.44-.72.06-.15.08-.23.13-.23s0 .1 0 .11c0 .01-.21 1.18-.21 1.4.022.163.069.322.14.47a.93.93 0 0 1 .11.41.3.3 0 0 1-.3.31c-.57 0-1-1.56-1-2.44a6.6 6.6 0 0 1 .38-2 3 3 0 0 0 .16-.95A2.16 2.16 0 0 0 77 2.2a1.66 1.66 0 0 1 0-.2h.06c.42 0 .8.83.8 1.16 0 .1 0 .11-.17.42A7.21 7.21 0 0 0 77 5.94c0 .27.08.55.22.55zm5.33.92c0 .35-.28.46-1.56.46a1.88 1.88 0 0 1-1.43-.41s-.29-.28-.29-.46v-.09s.18.11.22.13c.317.126.66.178 1 .15h.8l.8-.08c.38-.02.46.19.46.3zm-.43-4.47c0 .45-1 .45-1.13.45a1.8 1.8 0 0 1-1.61-.68h.07l.26.06a3.53 3.53 0 0 0 1.62-.08c.27-.1.3-.11.39-.1.09.01.4.14.4.35zM87.5 8.09a1 1 0 1 1-2 0 1 1 0 0 1 2 0zm-1.78 0a.77.77 0 0 0 1.307.554.75.75 0 0 0 .223-.534.76.76 0 0 0-.78-.77.75.75 0 0 0-.75.74v.01z"/>
        </g>
        <g fill="#FFF">
            <path d="M7.29 17.67v13.22H4.17V17.67H0v-2.79h11.47v2.79zM37.48 24.32v6.57h-3.1v-6.57l-4.8-9.44H33l3 6.45 2.94-6.45h3.39zM48.68 17.67v3.93H55v2.78h-6.32v6.51h-3.12v-16h10.53v2.79zM65.78 31a6 6 0 0 1-4.19-1.55 5.24 5.24 0 0 1-1.69-4.06V14.88H63v10.4a3 3 0 0 0 .74 2.15 2.64 2.64 0 0 0 2 .79 2.71 2.71 0 0 0 2-.78 3 3 0 0 0 .75-2.16v-10.4h3.09v10.51A5.26 5.26 0 0 1 70 29.45 6 6 0 0 1 65.78 31zM85.94 30.89l-6.33-9.81v9.81h-3.12v-16h2.78l6.33 9.79v-9.8h3.12v16zM103.78 29.36a4.85 4.85 0 0 1-1.85 1.13 6.86 6.86 0 0 1-2.37.4H93.8v-16h5.76a7.12 7.12 0 0 1 2.36.38 5.12 5.12 0 0 1 2 1.29 4.38 4.38 0 0 1 1.2 2.13c.21 1.03.303 2.08.28 3.13v2a14.92 14.92 0 0 1-.28 3.21 4.69 4.69 0 0 1-1.34 2.33zm-2.17-10.7a2.57 2.57 0 0 0-1-.74 3.29 3.29 0 0 0-1.37-.25h-2.33V28.1h2.36a2.67 2.67 0 0 0 2.15-.75 3.34 3.34 0 0 0 .74-1.64c.097-.96.137-1.925.12-2.89a22.3 22.3 0 0 0-.12-2.78 3 3 0 0 0-.55-1.38zM114.33 31a10.46 10.46 0 0 1-3.3-.47 6.42 6.42 0 0 1-2.53-1.64l2-2a4.15 4.15 0 0 0 1.69 1 7 7 0 0 0 2.17.32c1.88 0 2.82-.667 2.82-2a1.66 1.66 0 0 0-.35-1.21 2.51 2.51 0 0 0-.7-.48 3.26 3.26 0 0 0-.85-.22l-1.93-.27a5.38 5.38 0 0 1-3.15-1.38 4.14 4.14 0 0 1-1.1-3.08 4.47 4.47 0 0 1 1.5-3.51 5.87 5.87 0 0 1 4.07-1.34 8.75 8.75 0 0 1 2.91.43 6.09 6.09 0 0 1 2.25 1.43l-2 2a3.7 3.7 0 0 0-1.52-.87 6.39 6.39 0 0 0-1.76-.23 2.65 2.65 0 0 0-1.84.56 1.86 1.86 0 0 0-.63 1.46c0 .21.033.42.1.62.12.249.294.467.51.64a2.5 2.5 0 0 0 1.34.51l1.89.27a5.38 5.38 0 0 1 2.86 1.06 4.16 4.16 0 0 1 1.22 1.61 6 6 0 0 1 .29 1.94 4.28 4.28 0 0 1-1.66 3.56 6.76 6.76 0 0 1-4.3 1.29zM23.88 24A4.48 4.48 0 0 0 26 22.43a4.25 4.25 0 0 0 .83-2.65 4.73 4.73 0 0 0-1.4-3.49 5.12 5.12 0 0 0-3.79-1.41h-6.29v16h3.12V17.67h2.94a2.33 2.33 0 0 1 1.65.57 2 2 0 0 1 .62 1.53 2 2 0 0 1-.63 1.51 2.31 2.31 0 0 1-1.64.59h-2l2.22 4.55 2.18 4.47h3.61L23.88 24z"/>
        </g>
        <path fill="#008AA0" d="M133 1v29l48-14.5z"/>
        <path fill="#0C345D" d="M132.26 18.42V9.23l14.83 4.59zM132.26 31V18.42l20.29 6.29z"/>
        <path fill="#006180" d="M132.26 9.23V1l28.09 8.71-13.26 4.11z"/>
        <path fill="#007088" d="M167.38 20.11l-14.83 4.6-20.29-6.29 14.83-4.6z"/>
        <path fill="#008AA0" d="M160.35 9.71L180.64 16l-13.26 4.11-20.29-6.29z"/>
    </g>
</svg>
